# xmcd
#
# Track frame offsets: 
#        150
#        12825
#        30050
#        45696
#        61726
#        74987
#        95924
#        107996
#        122764
#        137317
#        149588
#        171385
#
# Disc length: 2462 seconds
#
# Revision: 0
# Processed by: cddbd v1.5.2PL0 Copyright (c) Steve Scherf et al.
# Submitted via: ExactAudioCopy v1.0b3
#
DISCID=ad099c0c
DTITLE=The Dawn Brothers - Stayin' Out Late
DYEAR=2017
DGENRE=Pop
TTITLE0=Darling
TTITLE1=Milk Truck
TTITLE2=Stayin' Out Late
TTITLE3=Stick Around
TTITLE4=Pictures
TTITLE5=Vampire
TTITLE6=The Hunter
TTITLE7=Get Down The Road
TTITLE8=Moon Discovered
TTITLE9=Free Bird
TTITLE10=Silver Spoon
TTITLE11=Chevy Suburban
EXTD=
EXTT0=
EXTT1=
EXTT2=
EXTT3=
EXTT4=
EXTT5=
EXTT6=
EXTT7=
EXTT8=
EXTT9=
EXTT10=
EXTT11=
PLAYORDER=
